<svg xmlns="http://www.w3.org/2000/svg" width="500" height="500" viewBox="0 0 500 500"><linearGradient id="linearGradient320cab6aef89f8ff2467221e349578e1" gradientUnits="userSpaceOnUse" gradientTransform="translate(250,250) rotate(270) translate(-250,-250)" x1="50%" y1="0%" x2="50%" y2="100%"><stop offset="100%" stop-color="#fff4db"/><stop offset="100%" stop-color="#FEB434"/></linearGradient><rect x="0" y="0" width="500" height="500" fill="url(#linearGradient320cab6aef89f8ff2467221e349578e1)"/><g transform="translate(-343.936878000896,24.700598802395135)translate(122.01454923489167,209.58083832335333)rotate(0)translate(-122.01454923489167,-209.58083832335333)" opacity="1"><filter id="shadow_0" x="-209.5" y="-209.5" width="244.02909846978335" height="419.16167664670667"><feGaussianBlur stdDeviation="0"/><feOffset dx="16" dy="10"/></filter><path transform="translate(4,329.4568732476505)rotate(0)" d="M216.89-104.35L121.64-210.10L216.89-210.10L216.89-104.35ZM147.89-0.15L20.84-148.04L19.91-148.04L19.91-148.04Q19.91-179.84 37.20-194.97L37.20-194.97L37.20-194.97Q54.49-210.10 90.46-210.10L90.46-210.10L216.89-56.65L216.89-56.65Q216.89-26.09 200.37-12.97L200.37-12.97L200.37-12.97Q184.32-0.15 147.89-0.15L147.89-0.15ZM20.38 0L20.38-106.36L112.07 0L20.38 0Z" fill="#010202" stroke="#010202" stroke-width="48" stroke-linejoin="round" stroke-miterlimit="2" opacity="0.81" style="filter:url(#shadow_0)"/><path transform="translate(4,329.4568732476505)rotate(0)" d="M216.89-104.35L121.64-210.10L216.89-210.10L216.89-104.35ZM147.89-0.15L20.84-148.04L19.91-148.04L19.91-148.04Q19.91-179.84 37.20-194.97L37.20-194.97L37.20-194.97Q54.49-210.10 90.46-210.10L90.46-210.10L216.89-56.65L216.89-56.65Q216.89-26.09 200.37-12.97L200.37-12.97L200.37-12.97Q184.32-0.15 147.89-0.15L147.89-0.15ZM20.38 0L20.38-106.36L112.07 0L20.38 0Z" fill="none" stroke="#176161" stroke-width="48" stroke-linejoin="round" stroke-miterlimit="2"/><path transform="translate(4,329.4568732476505)rotate(0)" d="M216.89-104.35L121.64-210.10L216.89-210.10L216.89-104.35ZM147.89-0.15L20.84-148.04L19.91-148.04L19.91-148.04Q19.91-179.84 37.20-194.97L37.20-194.97L37.20-194.97Q54.49-210.10 90.46-210.10L90.46-210.10L216.89-56.65L216.89-56.65Q216.89-26.09 200.37-12.97L200.37-12.97L200.37-12.97Q184.32-0.15 147.89-0.15L147.89-0.15ZM20.38 0L20.38-106.36L112.07 0L20.38 0Z" fill="#ffffff"/></g><g transform="translate(5.988023952096085,5.9880239520958085)translate(243.69823227367058,243.69823227367058)rotate(0)translate(-243.69823227367058,-243.69823227367058) scale(2.436982322736706,2.436982322736706)" opacity="1"><defs class="defs"><linearGradient id="linearGradient4156bad34924dc6894579867609f0d9b" class="linearGradient1" gradientTransform="translate(0.5,0.5) rotate(270) translate(-0.5,-0.5)" x1="50%" y1="0%" x2="50%" y2="100%"><stop id="stop1" offset="0%" class="linearGradientColor1" stop-color="#FFDD64"/><stop id="stop2" offset="100%" class="linearGradientColor2" stop-color="#FF8F00"/></linearGradient></defs><g>
    <path fill="url(#linearGradient4156bad34924dc6894579867609f0d9b)" d="M100,10c49.626,0,90,40.374,90,90s-40.374,90-90,90s-90-40.374-90-90S50.374,10,100,10 M100,0&#10;&#9;&#9;C44.771,0,0,44.771,0,100s44.771,100,100,100s100-44.771,100-100S155.229,0,100,0L100,0z" class="color c1"/>
    <g>
      <path fill="url(#linearGradient4156bad34924dc6894579867609f0d9b)" d="M58.874,153.687V46.313h34.791c13.184,0,21.776,0.538,25.781,1.611c6.152,1.611,11.303,5.116,15.453,10.51&#10;&#9;&#9;&#9;c4.15,5.396,6.227,12.367,6.227,20.911c0,6.592-1.197,12.134-3.59,16.626c-2.393,4.493-5.432,8.02-9.118,10.583&#10;&#9;&#9;&#9;c-3.688,2.563-7.435,4.261-11.243,5.09c-5.176,1.025-12.67,1.538-22.484,1.538H80.554v40.503H58.874z M80.554,64.478v30.469&#10;&#9;&#9;&#9;h11.865c8.545,0,14.258-0.561,17.139-1.685c2.881-1.123,5.139-2.88,6.775-5.273c1.635-2.392,2.453-5.175,2.453-8.35&#10;&#9;&#9;&#9;c0-3.906-1.147-7.128-3.441-9.668c-2.297-2.538-5.201-4.125-8.717-4.761c-2.588-0.487-7.789-0.732-15.6-0.732H80.554z" class="color c1"/>
    </g>
  </g></g><g transform="translate(180.8176346973316,373.86238383756574)translate(62.761048203057754,62.71611129254434)rotate(0)translate(-62.761048203057754,-62.71611129254434) scale(0.251044192812231,0.251044192812231)" opacity="1"><defs class="defs"><linearGradient id="linearGradientdc0889f563a89be72ec197f6c1bac982" class="linearGradient1" gradientTransform="translate(0.5,0.5) rotate(270) translate(-0.5,-0.5)" x1="50%" y1="0%" x2="50%" y2="100%"><stop id="stop1" offset="0%" class="linearGradientColor1" stop-color="#FFDD64"/><stop id="stop2" offset="100%" class="linearGradientColor2" stop-color="#FF8F00"/></linearGradient></defs><g>
    <polygon fill="url(#linearGradientdc0889f563a89be72ec197f6c1bac982)" points="430.945,184.321 452.277,227.554 500,234.492 465.471,268.148 473.608,315.68 430.945,293.247&#10;&#9;&#9;388.25,315.68 396.398,268.148 361.873,234.492 409.595,227.554 &#9;" class="color c1"/>
    <polygon fill="url(#linearGradientdc0889f563a89be72ec197f6c1bac982)" points="249.995,184.321 271.354,227.554 319.067,234.492 284.536,268.148 292.686,315.68 249.995,293.247&#10;&#9;&#9;207.314,315.68 215.467,268.148 180.936,234.492 228.65,227.554 &#9;" class="color c1"/>
    <polygon fill="url(#linearGradientdc0889f563a89be72ec197f6c1bac982)" points="69.061,184.321 90.405,227.554 138.127,234.492 103.602,268.148 111.738,315.68 69.061,293.247&#10;&#9;&#9;26.367,315.68 34.529,268.148 0,234.492 47.715,227.554 &#9;" class="color c1"/>
  </g></g><g transform="translate(142.24498168143742,24.853636279026528)translate(93.65679852896241,49.9063546406766)rotate(0)translate(-93.65679852896241,-49.9063546406766)" opacity="1"><filter id="shadow_3" x="-49.5" y="-49.5" width="187.31359705792482" height="99.8127092813532"><feGaussianBlur stdDeviation="0"/><feOffset dx="10" dy="3"/></filter><path transform="translate(7,80.65417727022478)rotate(0)" d="M7.14 0L7.14-55.82L34.00-55.82L34.00-55.82Q41.43-55.86 46.82-54.53L46.82-54.53L46.82-54.53Q52.22-53.19 55.71-50.71L55.71-50.71L55.71-50.71Q59.20-48.23 60.87-44.76L60.87-44.76L60.87-44.76Q62.55-41.28 62.55-37.04L62.55-37.04L62.55-37.04Q62.55-33.32 60.99-29.92L60.99-29.92L60.99-29.92Q59.43-26.52 56.18-23.93L56.18-23.93L56.18-23.93Q52.93-21.34 47.91-19.80L47.91-19.80L47.91-19.80Q42.90-18.26 35.99-18.26L35.99-18.26L28.85-18.26L28.85 0L7.14 0ZM28.85-47.63L28.85-26.45L28.85-26.45Q31.44-26.48 33.47-27.25L33.47-27.25L33.47-27.25Q35.50-28.02 36.89-29.39L36.89-29.39L36.89-29.39Q38.28-30.77 39.01-32.70L39.01-32.70L39.01-32.70Q39.74-34.63 39.74-37.04L39.74-37.04L39.74-37.04Q39.74-39.41 38.99-41.32L38.99-41.32L38.99-41.32Q38.24-43.24 36.83-44.61L36.83-44.61L36.83-44.61Q35.42-45.98 33.41-46.77L33.41-46.77L33.41-46.77Q31.40-47.56 28.85-47.63L28.85-47.63ZM67.20-11.72L67.20-11.72L67.20-11.72Q67.20-14.42 68.41-16.75L68.41-16.75L68.41-16.75Q69.61-19.08 71.86-20.81L71.86-20.81L71.86-20.81Q74.12-22.54 77.31-23.53L77.31-23.53L77.31-23.53Q80.50-24.53 84.45-24.53L84.45-24.53L84.45-24.53Q88.39-24.53 91.83-23.61L91.83-23.61L91.83-23.61Q95.26-22.69 97.59-21.26L97.59-21.26L97.59-21.56L97.59-21.56Q97.59-24.19 97.01-26.03L97.01-26.03L97.01-26.03Q96.43-27.87 95.23-29.04L95.23-29.04L95.23-29.04Q94.02-30.20 92.17-30.73L92.17-30.73L92.17-30.73Q90.31-31.25 87.79-31.25L87.79-31.25L87.79-31.25Q85.50-31.25 83.06-30.86L83.06-30.86L83.06-30.86Q80.61-30.47 78.55-29.71L78.55-29.71L75.81-34.79L75.81-34.79Q79.90-36.48 84.28-37.21L84.28-37.21L84.28-37.21Q88.65-37.94 93.31-37.94L93.31-37.94L93.31-37.94Q99.28-37.94 103.89-36.79L103.89-36.79L103.89-36.79Q108.49-35.65 111.62-33.38L111.62-33.38L111.62-33.38Q114.76-31.10 116.38-27.67L116.38-27.67L116.38-27.67Q117.99-24.23 117.99-19.61L117.99-19.61L117.99 0L98.95 0L97.67-3.61L97.67-3.61Q96.54-2.74 95.00-1.95L95.00-1.95L95.00-1.95Q93.46-1.16 91.62-0.56L91.62-0.56L91.62-0.56Q89.78 0.04 87.71 0.38L87.71 0.38L87.71 0.38Q85.65 0.71 83.39 0.71L83.39 0.71L83.39 0.71Q79.71 0.71 76.73-0.24L76.73-0.24L76.73-0.24Q73.74-1.20 71.64-2.85L71.64-2.85L71.64-2.85Q69.53-4.51 68.37-6.78L68.37-6.78L68.37-6.78Q67.20-9.05 67.20-11.72ZM88.24-12.51L88.24-12.51L88.24-12.51Q88.24-10.48 89.55-9.22L89.55-9.22L89.55-9.22Q90.87-7.96 93.09-7.96L93.09-7.96L93.09-7.96Q94.29-7.96 95.45-8.36L95.45-8.36L95.45-8.36Q96.62-8.75 97.59-9.54L97.59-9.54L97.59-15.89L97.59-15.89Q95.72-17.02 93.46-17.02L93.46-17.02L93.46-17.02Q90.91-17.02 89.57-15.76L89.57-15.76L89.57-15.76Q88.24-14.50 88.24-12.51ZM138.73-0.04L122.99-37.23L144.32-37.23L153.34-14.16L162.36-37.23L172.38-37.23L156.38 0.75L156.38 0.75Q154.84 4.36 153.08 7.14L153.08 7.14L153.08 7.14Q151.31 9.92 149.00 12.04L149.00 12.04L149.00 12.04Q146.69 14.16 143.72 15.74L143.72 15.74L143.72 15.74Q140.76 17.32 136.89 18.56L136.89 18.56L134.26 12.40L134.26 12.40Q137.26 11.34 139.48 10.01L139.48 10.01L139.48 10.01Q141.69 8.68 143.23 7.23L143.23 7.23L143.23 7.23Q144.77 5.78 145.73 4.32L145.73 4.32L145.73 4.32Q146.69 2.85 147.22 1.54L147.22 1.54L147.82-0.04L138.73-0.04Z" fill="#F1D145" stroke="#F1D145" stroke-width="4" stroke-linejoin="round" stroke-miterlimit="2" opacity="1" style="filter:url(#shadow_3)"/><path transform="translate(7,80.65417727022478)rotate(0)" d="M7.14 0L7.14-55.82L34.00-55.82L34.00-55.82Q41.43-55.86 46.82-54.53L46.82-54.53L46.82-54.53Q52.22-53.19 55.71-50.71L55.71-50.71L55.71-50.71Q59.20-48.23 60.87-44.76L60.87-44.76L60.87-44.76Q62.55-41.28 62.55-37.04L62.55-37.04L62.55-37.04Q62.55-33.32 60.99-29.92L60.99-29.92L60.99-29.92Q59.43-26.52 56.18-23.93L56.18-23.93L56.18-23.93Q52.93-21.34 47.91-19.80L47.91-19.80L47.91-19.80Q42.90-18.26 35.99-18.26L35.99-18.26L28.85-18.26L28.85 0L7.14 0ZM28.85-47.63L28.85-26.45L28.85-26.45Q31.44-26.48 33.47-27.25L33.47-27.25L33.47-27.25Q35.50-28.02 36.89-29.39L36.89-29.39L36.89-29.39Q38.28-30.77 39.01-32.70L39.01-32.70L39.01-32.70Q39.74-34.63 39.74-37.04L39.74-37.04L39.74-37.04Q39.74-39.41 38.99-41.32L38.99-41.32L38.99-41.32Q38.24-43.24 36.83-44.61L36.83-44.61L36.83-44.61Q35.42-45.98 33.41-46.77L33.41-46.77L33.41-46.77Q31.40-47.56 28.85-47.63L28.85-47.63ZM67.20-11.72L67.20-11.72L67.20-11.72Q67.20-14.42 68.41-16.75L68.41-16.75L68.41-16.75Q69.61-19.08 71.86-20.81L71.86-20.81L71.86-20.81Q74.12-22.54 77.31-23.53L77.31-23.53L77.31-23.53Q80.50-24.53 84.45-24.53L84.45-24.53L84.45-24.53Q88.39-24.53 91.83-23.61L91.83-23.61L91.83-23.61Q95.26-22.69 97.59-21.26L97.59-21.26L97.59-21.56L97.59-21.56Q97.59-24.19 97.01-26.03L97.01-26.03L97.01-26.03Q96.43-27.87 95.23-29.04L95.23-29.04L95.23-29.04Q94.02-30.20 92.17-30.73L92.17-30.73L92.17-30.73Q90.31-31.25 87.79-31.25L87.79-31.25L87.79-31.25Q85.50-31.25 83.06-30.86L83.06-30.86L83.06-30.86Q80.61-30.47 78.55-29.71L78.55-29.71L75.81-34.79L75.81-34.79Q79.90-36.48 84.28-37.21L84.28-37.21L84.28-37.21Q88.65-37.94 93.31-37.94L93.31-37.94L93.31-37.94Q99.28-37.94 103.89-36.79L103.89-36.79L103.89-36.79Q108.49-35.65 111.62-33.38L111.62-33.38L111.62-33.38Q114.76-31.10 116.38-27.67L116.38-27.67L116.38-27.67Q117.99-24.23 117.99-19.61L117.99-19.61L117.99 0L98.95 0L97.67-3.61L97.67-3.61Q96.54-2.74 95.00-1.95L95.00-1.95L95.00-1.95Q93.46-1.16 91.62-0.56L91.62-0.56L91.62-0.56Q89.78 0.04 87.71 0.38L87.71 0.38L87.71 0.38Q85.65 0.71 83.39 0.71L83.39 0.71L83.39 0.71Q79.71 0.71 76.73-0.24L76.73-0.24L76.73-0.24Q73.74-1.20 71.64-2.85L71.64-2.85L71.64-2.85Q69.53-4.51 68.37-6.78L68.37-6.78L68.37-6.78Q67.20-9.05 67.20-11.72ZM88.24-12.51L88.24-12.51L88.24-12.51Q88.24-10.48 89.55-9.22L89.55-9.22L89.55-9.22Q90.87-7.96 93.09-7.96L93.09-7.96L93.09-7.96Q94.29-7.96 95.45-8.36L95.45-8.36L95.45-8.36Q96.62-8.75 97.59-9.54L97.59-9.54L97.59-15.89L97.59-15.89Q95.72-17.02 93.46-17.02L93.46-17.02L93.46-17.02Q90.91-17.02 89.57-15.76L89.57-15.76L89.57-15.76Q88.24-14.50 88.24-12.51ZM138.73-0.04L122.99-37.23L144.32-37.23L153.34-14.16L162.36-37.23L172.38-37.23L156.38 0.75L156.38 0.75Q154.84 4.36 153.08 7.14L153.08 7.14L153.08 7.14Q151.31 9.92 149.00 12.04L149.00 12.04L149.00 12.04Q146.69 14.16 143.72 15.74L143.72 15.74L143.72 15.74Q140.76 17.32 136.89 18.56L136.89 18.56L134.26 12.40L134.26 12.40Q137.26 11.34 139.48 10.01L139.48 10.01L139.48 10.01Q141.69 8.68 143.23 7.23L143.23 7.23L143.23 7.23Q144.77 5.78 145.73 4.32L145.73 4.32L145.73 4.32Q146.69 2.85 147.22 1.54L147.22 1.54L147.82-0.04L138.73-0.04Z" fill="none" stroke="#F8E8A2" stroke-width="4" stroke-linejoin="round" stroke-miterlimit="2"/><path transform="translate(7,80.65417727022478)rotate(0)" d="M7.14 0L7.14-55.82L34.00-55.82L34.00-55.82Q41.43-55.86 46.82-54.53L46.82-54.53L46.82-54.53Q52.22-53.19 55.71-50.71L55.71-50.71L55.71-50.71Q59.20-48.23 60.87-44.76L60.87-44.76L60.87-44.76Q62.55-41.28 62.55-37.04L62.55-37.04L62.55-37.04Q62.55-33.32 60.99-29.92L60.99-29.92L60.99-29.92Q59.43-26.52 56.18-23.93L56.18-23.93L56.18-23.93Q52.93-21.34 47.91-19.80L47.91-19.80L47.91-19.80Q42.90-18.26 35.99-18.26L35.99-18.26L28.85-18.26L28.85 0L7.14 0ZM28.85-47.63L28.85-26.45L28.85-26.45Q31.44-26.48 33.47-27.25L33.47-27.25L33.47-27.25Q35.50-28.02 36.89-29.39L36.89-29.39L36.89-29.39Q38.28-30.77 39.01-32.70L39.01-32.70L39.01-32.70Q39.74-34.63 39.74-37.04L39.74-37.04L39.74-37.04Q39.74-39.41 38.99-41.32L38.99-41.32L38.99-41.32Q38.24-43.24 36.83-44.61L36.83-44.61L36.83-44.61Q35.42-45.98 33.41-46.77L33.41-46.77L33.41-46.77Q31.40-47.56 28.85-47.63L28.85-47.63ZM67.20-11.72L67.20-11.72L67.20-11.72Q67.20-14.42 68.41-16.75L68.41-16.75L68.41-16.75Q69.61-19.08 71.86-20.81L71.86-20.81L71.86-20.81Q74.12-22.54 77.31-23.53L77.31-23.53L77.31-23.53Q80.50-24.53 84.45-24.53L84.45-24.53L84.45-24.53Q88.39-24.53 91.83-23.61L91.83-23.61L91.83-23.61Q95.26-22.69 97.59-21.26L97.59-21.26L97.59-21.56L97.59-21.56Q97.59-24.19 97.01-26.03L97.01-26.03L97.01-26.03Q96.43-27.87 95.23-29.04L95.23-29.04L95.23-29.04Q94.02-30.20 92.17-30.73L92.17-30.73L92.17-30.73Q90.31-31.25 87.79-31.25L87.79-31.25L87.79-31.25Q85.50-31.25 83.06-30.86L83.06-30.86L83.06-30.86Q80.61-30.47 78.55-29.71L78.55-29.71L75.81-34.79L75.81-34.79Q79.90-36.48 84.28-37.21L84.28-37.21L84.28-37.21Q88.65-37.94 93.31-37.94L93.31-37.94L93.31-37.94Q99.28-37.94 103.89-36.79L103.89-36.79L103.89-36.79Q108.49-35.65 111.62-33.38L111.62-33.38L111.62-33.38Q114.76-31.10 116.38-27.67L116.38-27.67L116.38-27.67Q117.99-24.23 117.99-19.61L117.99-19.61L117.99 0L98.95 0L97.67-3.61L97.67-3.61Q96.54-2.74 95.00-1.95L95.00-1.95L95.00-1.95Q93.46-1.16 91.62-0.56L91.62-0.56L91.62-0.56Q89.78 0.04 87.71 0.38L87.71 0.38L87.71 0.38Q85.65 0.71 83.39 0.71L83.39 0.71L83.39 0.71Q79.71 0.71 76.73-0.24L76.73-0.24L76.73-0.24Q73.74-1.20 71.64-2.85L71.64-2.85L71.64-2.85Q69.53-4.51 68.37-6.78L68.37-6.78L68.37-6.78Q67.20-9.05 67.20-11.72ZM88.24-12.51L88.24-12.51L88.24-12.51Q88.24-10.48 89.55-9.22L89.55-9.22L89.55-9.22Q90.87-7.96 93.09-7.96L93.09-7.96L93.09-7.96Q94.29-7.96 95.45-8.36L95.45-8.36L95.45-8.36Q96.62-8.75 97.59-9.54L97.59-9.54L97.59-15.89L97.59-15.89Q95.72-17.02 93.46-17.02L93.46-17.02L93.46-17.02Q90.91-17.02 89.57-15.76L89.57-15.76L89.57-15.76Q88.24-14.50 88.24-12.51ZM138.73-0.04L122.99-37.23L144.32-37.23L153.34-14.16L162.36-37.23L172.38-37.23L156.38 0.75L156.38 0.75Q154.84 4.36 153.08 7.14L153.08 7.14L153.08 7.14Q151.31 9.92 149.00 12.04L149.00 12.04L149.00 12.04Q146.69 14.16 143.72 15.74L143.72 15.74L143.72 15.74Q140.76 17.32 136.89 18.56L136.89 18.56L134.26 12.40L134.26 12.40Q137.26 11.34 139.48 10.01L139.48 10.01L139.48 10.01Q141.69 8.68 143.23 7.23L143.23 7.23L143.23 7.23Q144.77 5.78 145.73 4.32L145.73 4.32L145.73 4.32Q146.69 2.85 147.22 1.54L147.22 1.54L147.82-0.04L138.73-0.04Z" fill="#000000"/></g><g transform="translate(196.96371681322051,283.28912041816875)translate(124.35621720000863,53.33292908033955)rotate(0)translate(-124.35621720000863,-53.33292908033955)" opacity="1"><filter id="shadow_4" x="-53.5" y="-53.5" width="248.71243440001726" height="106.6658581606791"><feGaussianBlur stdDeviation="0"/><feOffset dx="5" dy="1"/></filter><path transform="translate(5,86.42323012013901)rotate(0)" d="M5.64 0L5.64-39.89L24.92-39.89L26.85-34.10L26.85-34.10Q29.15-35.79 31.18-37.02L31.18-37.02L31.18-37.02Q33.21-38.24 35.12-39.07L35.12-39.07L35.12-39.07Q37.04-39.89 38.83-40.28L38.83-40.28L38.83-40.28Q40.62-40.66 42.39-40.66L42.39-40.66L42.39-40.66Q44.97-40.66 47.04-39.93L47.04-39.93L47.04-39.93Q49.11-39.21 50.58-37.88L50.58-37.88L50.58-37.88Q52.05-36.55 52.84-34.72L52.84-34.72L52.84-34.72Q53.62-32.89 53.62-30.67L53.62-30.67L53.62-30.67Q53.62-28.46 52.67-26.61L52.67-26.61L52.67-26.61Q51.73-24.76 49.92-23.41L49.92-23.41L49.92-23.41Q48.11-22.06 45.47-21.32L45.47-21.32L45.47-21.32Q42.83-20.57 39.45-20.57L39.45-20.57L32.37-30.03L32.37-30.03Q31.20-30.03 29.83-29.55L29.83-29.55L29.83-29.55Q28.46-29.06 27.49-28.02L27.49-28.02L27.49 0L5.64 0ZM70.77-46.54L70.77-46.54L70.77-46.54Q67.79-46.54 65.64-47.18L65.64-47.18L65.64-47.18Q63.48-47.82 62.11-48.97L62.11-48.97L62.11-48.97Q60.75-50.12 60.10-51.63L60.10-51.63L60.10-51.63Q59.46-53.14 59.46-54.91L59.46-54.91L59.46-54.91Q59.46-56.64 60.10-58.17L60.10-58.17L60.10-58.17Q60.75-59.70 62.11-60.85L62.11-60.85L62.11-60.85Q63.48-61.99 65.64-62.64L65.64-62.64L65.64-62.64Q67.79-63.28 70.77-63.28L70.77-63.28L70.77-63.28Q73.79-63.28 75.92-62.64L75.92-62.64L75.92-62.64Q78.06-61.99 79.44-60.85L79.44-60.85L79.44-60.85Q80.83-59.70 81.48-58.17L81.48-58.17L81.48-58.17Q82.12-56.64 82.12-54.91L82.12-54.91L82.12-54.91Q82.12-53.14 81.48-51.63L81.48-51.63L81.48-51.63Q80.83-50.12 79.44-48.97L79.44-48.97L79.44-48.97Q78.06-47.82 75.92-47.18L75.92-47.18L75.92-47.18Q73.79-46.54 70.77-46.54ZM59.86 0L59.86-39.89L81.72-39.89L81.72 0L59.86 0ZM92.99 0L92.99-39.89L112.27-39.89L114.21-34.10L114.21-34.10Q118.47-37.36 122.88-39.01L122.88-39.01L122.88-39.01Q127.29-40.66 132.16-40.66L132.16-40.66L132.16-40.66Q135.82-40.66 138.80-39.05L138.80-39.05L138.80-39.05Q141.78-37.44 143.47-33.94L143.47-33.94L143.47-33.94Q145.32-35.26 147.46-36.47L147.46-36.47L147.46-36.47Q149.59-37.68 151.95-38.63L151.95-38.63L151.95-38.63Q154.30-39.57 156.84-40.11L156.84-40.11L156.84-40.11Q159.37-40.66 162.11-40.66L162.11-40.66L162.11-40.66Q164.89-40.66 167.30-39.73L167.30-39.73L167.30-39.73Q169.72-38.81 171.49-36.87L171.49-36.87L171.49-36.87Q173.26-34.94 174.27-31.90L174.27-31.90L174.27-31.90Q175.27-28.86 175.27-24.64L175.27-24.64L175.27 0L153.41 0L153.41-26.01L153.41-26.01Q153.41-28.10 152.47-29.06L152.47-29.06L152.47-29.06Q151.52-30.03 149.75-30.03L149.75-30.03L149.75-30.03Q148.83-30.03 147.66-29.61L147.66-29.61L147.66-29.61Q146.49-29.19 145.28-28.38L145.28-28.38L145.28 0L123.42 0L123.42-26.01L123.42-26.01Q123.42-28.10 122.50-29.06L122.50-29.06L122.50-29.06Q121.57-30.03 119.80-30.03L119.80-30.03L119.80-30.03Q118.63-30.03 117.22-29.55L117.22-29.55L117.22-29.55Q115.82-29.06 114.85-28.02L114.85-28.02L114.85 0L92.99 0ZM183.53-20.17L183.53-20.17L183.53-20.17Q183.53-23.63 184.61-26.49L184.61-26.49L184.61-26.49Q185.70-29.35 187.61-31.62L187.61-31.62L187.61-31.62Q189.52-33.90 192.14-35.59L192.14-35.59L192.14-35.59Q194.76-37.28 197.82-38.40L197.82-38.40L197.82-38.40Q200.88-39.53 204.22-40.09L204.22-40.09L204.22-40.09Q207.56-40.66 210.98-40.66L210.98-40.66L210.98-40.66Q215.49-40.66 219.17-39.75L219.17-39.75L219.17-39.75Q222.86-38.85 225.73-37.28L225.73-37.28L225.73-37.28Q228.61-35.71 230.73-33.61L230.73-33.61L230.73-33.61Q232.84-31.52 234.23-29.17L234.23-29.17L234.23-29.17Q235.62-26.81 236.28-24.31L236.28-24.31L236.28-24.31Q236.95-21.82 236.95-19.44L236.95-19.44L206.51-15.78L206.51-15.78Q207.40-11.31 210.05-8.86L210.05-8.86L210.05-8.86Q212.71-6.40 217.50-6.40L217.50-6.40L217.50-6.40Q220.12-6.40 222.39-7.04L222.39-7.04L222.39-7.04Q224.67-7.69 225.96-8.61L225.96-8.61L229.18-2.98L229.18-2.98Q227.69-2.21 225.94-1.53L225.94-1.53L225.94-1.53Q224.18-0.85 222.07-0.34L222.07-0.34L222.07-0.34Q219.96 0.16 217.40 0.46L217.40 0.46L217.40 0.46Q214.85 0.76 211.79 0.76L211.79 0.76L211.79 0.76Q204.46 0.76 199.15-0.95L199.15-0.95L199.15-0.95Q193.83-2.66 190.35-5.54L190.35-5.54L190.35-5.54Q186.87-8.41 185.20-12.20L185.20-12.20L185.20-12.20Q183.53-15.98 183.53-20.17ZM206.03-22.14L217.42-23.55L217.42-23.55Q217.42-28.78 216.11-31.16L216.11-31.16L216.11-31.16Q214.81-33.53 212.23-33.53L212.23-33.53L212.23-33.53Q210.90-33.53 209.77-32.89L209.77-32.89L209.77-32.89Q208.65-32.24 207.84-30.88L207.84-30.88L207.84-30.88Q207.04-29.51 206.55-27.35L206.55-27.35L206.55-27.35Q206.07-25.20 206.03-22.14L206.03-22.14Z" fill="#F1D145" stroke="#F1D145" stroke-width="5" stroke-linejoin="round" stroke-miterlimit="2" opacity="1" style="filter:url(#shadow_4)"/><path transform="translate(5,86.42323012013901)rotate(0)" d="M5.64 0L5.64-39.89L24.92-39.89L26.85-34.10L26.85-34.10Q29.15-35.79 31.18-37.02L31.18-37.02L31.18-37.02Q33.21-38.24 35.12-39.07L35.12-39.07L35.12-39.07Q37.04-39.89 38.83-40.28L38.83-40.28L38.83-40.28Q40.62-40.66 42.39-40.66L42.39-40.66L42.39-40.66Q44.97-40.66 47.04-39.93L47.04-39.93L47.04-39.93Q49.11-39.21 50.58-37.88L50.58-37.88L50.58-37.88Q52.05-36.55 52.84-34.72L52.84-34.72L52.84-34.72Q53.62-32.89 53.62-30.67L53.62-30.67L53.62-30.67Q53.62-28.46 52.67-26.61L52.67-26.61L52.67-26.61Q51.73-24.76 49.92-23.41L49.92-23.41L49.92-23.41Q48.11-22.06 45.47-21.32L45.47-21.32L45.47-21.32Q42.83-20.57 39.45-20.57L39.45-20.57L32.37-30.03L32.37-30.03Q31.20-30.03 29.83-29.55L29.83-29.55L29.83-29.55Q28.46-29.06 27.49-28.02L27.49-28.02L27.49 0L5.64 0ZM70.77-46.54L70.77-46.54L70.77-46.54Q67.79-46.54 65.64-47.18L65.64-47.18L65.64-47.18Q63.48-47.82 62.11-48.97L62.11-48.97L62.11-48.97Q60.75-50.12 60.10-51.63L60.10-51.63L60.10-51.63Q59.46-53.14 59.46-54.91L59.46-54.91L59.46-54.91Q59.46-56.64 60.10-58.17L60.10-58.17L60.10-58.17Q60.75-59.70 62.11-60.85L62.11-60.85L62.11-60.85Q63.48-61.99 65.64-62.64L65.64-62.64L65.64-62.64Q67.79-63.28 70.77-63.28L70.77-63.28L70.77-63.28Q73.79-63.28 75.92-62.64L75.92-62.64L75.92-62.64Q78.06-61.99 79.44-60.85L79.44-60.85L79.44-60.85Q80.83-59.70 81.48-58.17L81.48-58.17L81.48-58.17Q82.12-56.64 82.12-54.91L82.12-54.91L82.12-54.91Q82.12-53.14 81.48-51.63L81.48-51.63L81.48-51.63Q80.83-50.12 79.44-48.97L79.44-48.97L79.44-48.97Q78.06-47.82 75.92-47.18L75.92-47.18L75.92-47.18Q73.79-46.54 70.77-46.54ZM59.86 0L59.86-39.89L81.72-39.89L81.72 0L59.86 0ZM92.99 0L92.99-39.89L112.27-39.89L114.21-34.10L114.21-34.10Q118.47-37.36 122.88-39.01L122.88-39.01L122.88-39.01Q127.29-40.66 132.16-40.66L132.16-40.66L132.16-40.66Q135.82-40.66 138.80-39.05L138.80-39.05L138.80-39.05Q141.78-37.44 143.47-33.94L143.47-33.94L143.47-33.94Q145.32-35.26 147.46-36.47L147.46-36.47L147.46-36.47Q149.59-37.68 151.95-38.63L151.95-38.63L151.95-38.63Q154.30-39.57 156.84-40.11L156.84-40.11L156.84-40.11Q159.37-40.66 162.11-40.66L162.11-40.66L162.11-40.66Q164.89-40.66 167.30-39.73L167.30-39.73L167.30-39.73Q169.72-38.81 171.49-36.87L171.49-36.87L171.49-36.87Q173.26-34.94 174.27-31.90L174.27-31.90L174.27-31.90Q175.27-28.86 175.27-24.64L175.27-24.64L175.27 0L153.41 0L153.41-26.01L153.41-26.01Q153.41-28.10 152.47-29.06L152.47-29.06L152.47-29.06Q151.52-30.03 149.75-30.03L149.75-30.03L149.75-30.03Q148.83-30.03 147.66-29.61L147.66-29.61L147.66-29.61Q146.49-29.19 145.28-28.38L145.28-28.38L145.28 0L123.42 0L123.42-26.01L123.42-26.01Q123.42-28.10 122.50-29.06L122.50-29.06L122.50-29.06Q121.57-30.03 119.80-30.03L119.80-30.03L119.80-30.03Q118.63-30.03 117.22-29.55L117.22-29.55L117.22-29.55Q115.82-29.06 114.85-28.02L114.85-28.02L114.85 0L92.99 0ZM183.53-20.17L183.53-20.17L183.53-20.17Q183.53-23.63 184.61-26.49L184.61-26.49L184.61-26.49Q185.70-29.35 187.61-31.62L187.61-31.62L187.61-31.62Q189.52-33.90 192.14-35.59L192.14-35.59L192.14-35.59Q194.76-37.28 197.82-38.40L197.82-38.40L197.82-38.40Q200.88-39.53 204.22-40.09L204.22-40.09L204.22-40.09Q207.56-40.66 210.98-40.66L210.98-40.66L210.98-40.66Q215.49-40.66 219.17-39.75L219.17-39.75L219.17-39.75Q222.86-38.85 225.73-37.28L225.73-37.28L225.73-37.28Q228.61-35.71 230.73-33.61L230.73-33.61L230.73-33.61Q232.84-31.52 234.23-29.17L234.23-29.17L234.23-29.17Q235.62-26.81 236.28-24.31L236.28-24.31L236.28-24.31Q236.95-21.82 236.95-19.44L236.95-19.44L206.51-15.78L206.51-15.78Q207.40-11.31 210.05-8.86L210.05-8.86L210.05-8.86Q212.71-6.40 217.50-6.40L217.50-6.40L217.50-6.40Q220.12-6.40 222.39-7.04L222.39-7.04L222.39-7.04Q224.67-7.69 225.96-8.61L225.96-8.61L229.18-2.98L229.18-2.98Q227.69-2.21 225.94-1.53L225.94-1.53L225.94-1.53Q224.18-0.85 222.07-0.34L222.07-0.34L222.07-0.34Q219.96 0.16 217.40 0.46L217.40 0.46L217.40 0.46Q214.85 0.76 211.79 0.76L211.79 0.76L211.79 0.76Q204.46 0.76 199.15-0.95L199.15-0.95L199.15-0.95Q193.83-2.66 190.35-5.54L190.35-5.54L190.35-5.54Q186.87-8.41 185.20-12.20L185.20-12.20L185.20-12.20Q183.53-15.98 183.53-20.17ZM206.03-22.14L217.42-23.55L217.42-23.55Q217.42-28.78 216.11-31.16L216.11-31.16L216.11-31.16Q214.81-33.53 212.23-33.53L212.23-33.53L212.23-33.53Q210.90-33.53 209.77-32.89L209.77-32.89L209.77-32.89Q208.65-32.24 207.84-30.88L207.84-30.88L207.84-30.88Q207.04-29.51 206.55-27.35L206.55-27.35L206.55-27.35Q206.07-25.20 206.03-22.14L206.03-22.14Z" fill="none" stroke="#F8E8A2" stroke-width="5" stroke-linejoin="round" stroke-miterlimit="2"/><path transform="translate(5,86.42323012013901)rotate(0)" d="M5.64 0L5.64-39.89L24.92-39.89L26.85-34.10L26.85-34.10Q29.15-35.79 31.18-37.02L31.18-37.02L31.18-37.02Q33.21-38.24 35.12-39.07L35.12-39.07L35.12-39.07Q37.04-39.89 38.83-40.28L38.83-40.28L38.83-40.28Q40.62-40.66 42.39-40.66L42.39-40.66L42.39-40.66Q44.97-40.66 47.04-39.93L47.04-39.93L47.04-39.93Q49.11-39.21 50.58-37.88L50.58-37.88L50.58-37.88Q52.05-36.55 52.84-34.72L52.84-34.72L52.84-34.72Q53.62-32.89 53.62-30.67L53.62-30.67L53.62-30.67Q53.62-28.46 52.67-26.61L52.67-26.61L52.67-26.61Q51.73-24.76 49.92-23.41L49.92-23.41L49.92-23.41Q48.11-22.06 45.47-21.32L45.47-21.32L45.47-21.32Q42.83-20.57 39.45-20.57L39.45-20.57L32.37-30.03L32.37-30.03Q31.20-30.03 29.83-29.55L29.83-29.55L29.83-29.55Q28.46-29.06 27.49-28.02L27.49-28.02L27.49 0L5.64 0ZM70.77-46.54L70.77-46.54L70.77-46.54Q67.79-46.54 65.64-47.18L65.64-47.18L65.64-47.18Q63.48-47.82 62.11-48.97L62.11-48.97L62.11-48.97Q60.75-50.12 60.10-51.63L60.10-51.63L60.10-51.63Q59.46-53.14 59.46-54.91L59.46-54.91L59.46-54.91Q59.46-56.64 60.10-58.17L60.10-58.17L60.10-58.17Q60.75-59.70 62.11-60.85L62.11-60.85L62.11-60.85Q63.48-61.99 65.64-62.64L65.64-62.64L65.64-62.64Q67.79-63.28 70.77-63.28L70.77-63.28L70.77-63.28Q73.79-63.28 75.92-62.64L75.92-62.64L75.92-62.64Q78.06-61.99 79.44-60.85L79.44-60.85L79.44-60.85Q80.83-59.70 81.48-58.17L81.48-58.17L81.48-58.17Q82.12-56.64 82.12-54.91L82.12-54.91L82.12-54.91Q82.12-53.14 81.48-51.63L81.48-51.63L81.48-51.63Q80.83-50.12 79.44-48.97L79.44-48.97L79.44-48.97Q78.06-47.82 75.92-47.18L75.92-47.18L75.92-47.18Q73.79-46.54 70.77-46.54ZM59.86 0L59.86-39.89L81.72-39.89L81.72 0L59.86 0ZM92.99 0L92.99-39.89L112.27-39.89L114.21-34.10L114.21-34.10Q118.47-37.36 122.88-39.01L122.88-39.01L122.88-39.01Q127.29-40.66 132.16-40.66L132.16-40.66L132.16-40.66Q135.82-40.66 138.80-39.05L138.80-39.05L138.80-39.05Q141.78-37.44 143.47-33.94L143.47-33.94L143.47-33.94Q145.32-35.26 147.46-36.47L147.46-36.47L147.46-36.47Q149.59-37.68 151.95-38.63L151.95-38.63L151.95-38.63Q154.30-39.57 156.84-40.11L156.84-40.11L156.84-40.11Q159.37-40.66 162.11-40.66L162.11-40.66L162.11-40.66Q164.89-40.66 167.30-39.73L167.30-39.73L167.30-39.73Q169.72-38.81 171.49-36.87L171.49-36.87L171.49-36.87Q173.26-34.94 174.27-31.90L174.27-31.90L174.27-31.90Q175.27-28.86 175.27-24.64L175.27-24.64L175.27 0L153.41 0L153.41-26.01L153.41-26.01Q153.41-28.10 152.47-29.06L152.47-29.06L152.47-29.06Q151.52-30.03 149.75-30.03L149.75-30.03L149.75-30.03Q148.83-30.03 147.66-29.61L147.66-29.61L147.66-29.61Q146.49-29.19 145.28-28.38L145.28-28.38L145.28 0L123.42 0L123.42-26.01L123.42-26.01Q123.42-28.10 122.50-29.06L122.50-29.06L122.50-29.06Q121.57-30.03 119.80-30.03L119.80-30.03L119.80-30.03Q118.63-30.03 117.22-29.55L117.22-29.55L117.22-29.55Q115.82-29.06 114.85-28.02L114.85-28.02L114.85 0L92.99 0ZM183.53-20.17L183.53-20.17L183.53-20.17Q183.53-23.63 184.61-26.49L184.61-26.49L184.61-26.49Q185.70-29.35 187.61-31.62L187.61-31.62L187.61-31.62Q189.52-33.90 192.14-35.59L192.14-35.59L192.14-35.59Q194.76-37.28 197.82-38.40L197.82-38.40L197.82-38.40Q200.88-39.53 204.22-40.09L204.22-40.09L204.22-40.09Q207.56-40.66 210.98-40.66L210.98-40.66L210.98-40.66Q215.49-40.66 219.17-39.75L219.17-39.75L219.17-39.75Q222.86-38.85 225.73-37.28L225.73-37.28L225.73-37.28Q228.61-35.71 230.73-33.61L230.73-33.61L230.73-33.61Q232.84-31.52 234.23-29.17L234.23-29.17L234.23-29.17Q235.62-26.81 236.28-24.31L236.28-24.31L236.28-24.31Q236.95-21.82 236.95-19.44L236.95-19.44L206.51-15.78L206.51-15.78Q207.40-11.31 210.05-8.86L210.05-8.86L210.05-8.86Q212.71-6.40 217.50-6.40L217.50-6.40L217.50-6.40Q220.12-6.40 222.39-7.04L222.39-7.04L222.39-7.04Q224.67-7.69 225.96-8.61L225.96-8.61L229.18-2.98L229.18-2.98Q227.69-2.21 225.94-1.53L225.94-1.53L225.94-1.53Q224.18-0.85 222.07-0.34L222.07-0.34L222.07-0.34Q219.96 0.16 217.40 0.46L217.40 0.46L217.40 0.46Q214.85 0.76 211.79 0.76L211.79 0.76L211.79 0.76Q204.46 0.76 199.15-0.95L199.15-0.95L199.15-0.95Q193.83-2.66 190.35-5.54L190.35-5.54L190.35-5.54Q186.87-8.41 185.20-12.20L185.20-12.20L185.20-12.20Q183.53-15.98 183.53-20.17ZM206.03-22.14L217.42-23.55L217.42-23.55Q217.42-28.78 216.11-31.16L216.11-31.16L216.11-31.16Q214.81-33.53 212.23-33.53L212.23-33.53L212.23-33.53Q210.90-33.53 209.77-32.89L209.77-32.89L209.77-32.89Q208.65-32.24 207.84-30.88L207.84-30.88L207.84-30.88Q207.04-29.51 206.55-27.35L206.55-27.35L206.55-27.35Q206.07-25.20 206.03-22.14L206.03-22.14Z" fill="#000000"/></g></svg>